<svg width="250" height="137" viewBox="0 0 250 137" fill="none" xmlns="http://www.w3.org/2000/svg">
<path d="M241.952 0.0501006C249.191 -0.781379 253.176 8.95084 246.817 13.337C236.814 20.2344 230.21 1.39498 241.952 0.0501006Z" fill="#3A5E7C"/>
<path d="M160.016 100.519C167.701 98.9566 172.46 109.258 165.46 113.789C155.925 119.961 149.483 102.656 160.016 100.519Z" fill="#3A5E7C"/>
<path d="M61.9517 69.8046C68.7393 69.0401 72.1387 78.7109 65.8136 82.0871C56.4291 87.0983 51.6978 70.9597 61.9517 69.8046Z" fill="#3A5E7C"/>
<path d="M231.342 125.614C240.041 123.683 240.793 137.98 231.815 136.647C225.97 135.782 225.669 126.875 231.342 125.614Z" fill="#3A5E7C"/>
<path d="M171.719 53.6165C176.678 52.5841 179.855 59.8275 175.168 62.6791C168.693 66.6188 164.58 55.1009 171.719 53.6165Z" fill="#3A5E7C"/>
<path d="M1.51499 12.0479C-2.8262 8.07463 3.0475 0.457384 8.00727 4.71523C12.8611 8.87821 6.35773 16.4843 1.51499 12.0479Z" fill="#3A5E7C"/>
<path d="M59.7003 12.8909C66.2818 11.44 67.9647 20.843 62.2471 22.1488C55.4539 23.7002 54.0161 14.1465 59.7003 12.8909Z" fill="#3A5E7C"/>
<path d="M175.614 93.7955C178.607 92.9417 181.46 95.8379 179.37 98.7062C175.48 104.047 170.487 95.2575 175.614 93.7955Z" fill="#3A5E7C"/>
</svg>
